<?xml version="1.0" encoding="UTF-8" standalone="no"?>
<!DOCTYPE svg PUBLIC "-//W3C//DTD SVG 1.1//EN" "http://www.w3.org/Graphics/SVG/1.1/DTD/svg11.dtd">
<svg width="100%" height="100%" viewBox="0 0 16 16" version="1.1" xmlns="http://www.w3.org/2000/svg" xmlns:xlink="http://www.w3.org/1999/xlink" xml:space="preserve" xmlns:serif="http://www.serif.com/" style="fill-rule:evenodd;clip-rule:evenodd;stroke-linejoin:round;stroke-miterlimit:2;">
    <g transform="matrix(0.875,0,0,0.75,1,1.75)">
        <path d="M1,12L7,13L15,11L16,14L7,15L0,14L1,12" style="fill:rgb(172,254,78);"/>
    </g>
    <g transform="matrix(0.9375,0,0,0.75,1,1)">
        <path d="M0,3L0,1L5,0L15,1L16,4L5,2L0,3Z" style="fill:rgb(172,254,78);"/>
    </g>
    <g transform="matrix(0.866667,0,0,0.666667,1,2.66667)">
        <path d="M0,6L6,5L15,6L15,8L6,7L1,8L0,6Z" style="fill:rgb(172,254,78);"/>
    </g>
</svg>
